<svg width="101" height="102" viewBox="0 0 101 102" fill="none" xmlns="http://www.w3.org/2000/svg">
<path d="M56.8125 31.875C56.8125 31.0296 56.48 30.2189 55.8881 29.6211C55.2961 29.0233 54.4933 28.6875 53.6562 28.6875C52.8192 28.6875 52.0164 29.0233 51.4244 29.6211C50.8325 30.2189 50.5 31.0296 50.5 31.875V51H37.875C37.0379 51 36.2351 51.3358 35.6432 51.9336C35.0513 52.5314 34.7188 53.3421 34.7188 54.1875C34.7188 55.0329 35.0513 55.8436 35.6432 56.4414C36.2351 57.0392 37.0379 57.375 37.875 57.375H53.6562C54.4933 57.375 55.2961 57.0392 55.8881 56.4414C56.48 55.8436 56.8125 55.0329 56.8125 54.1875V31.875Z" fill="url(#paint0_linear_178_515)"/>
<path d="M25.25 10.6271V13.0687C21.6854 13.8036 18.4818 15.7596 16.1811 18.6057C13.8805 21.4519 12.6243 25.0134 12.625 28.6875V73.3125C12.6243 76.9866 13.8805 80.5481 16.1811 83.3943C18.4818 86.2404 21.6854 88.1964 25.25 88.9313V91.3729C25.25 97.2379 29.9591 102 35.7729 102H65.2271C71.0346 102 75.75 97.2442 75.75 91.3729V88.9313C79.3146 88.1964 82.5182 86.2404 84.8189 83.3943C87.1195 80.5481 88.3757 76.9866 88.375 73.3125V51H91.5312C92.3683 51 93.1712 50.6642 93.7631 50.0664C94.355 49.4686 94.6875 48.6579 94.6875 47.8125V35.0625C94.6875 34.2171 94.355 33.4064 93.7631 32.8086C93.1712 32.2108 92.3683 31.875 91.5312 31.875H88.375V28.6875C88.3757 25.0134 87.1195 21.4519 84.8189 18.6057C82.5182 15.7596 79.3146 13.8036 75.75 13.0687V10.6271C75.75 4.76213 71.0409 0 65.2271 0H35.7729C29.9654 0 25.25 4.75575 25.25 10.6271ZM28.4062 19.125H72.5938C75.105 19.125 77.5134 20.1325 79.2892 21.9258C81.0649 23.7191 82.0625 26.1514 82.0625 28.6875V73.3125C82.0625 75.8486 81.0649 78.2809 79.2892 80.0742C77.5134 81.8675 75.105 82.875 72.5938 82.875H28.4062C25.895 82.875 23.4866 81.8675 21.7108 80.0742C19.9351 78.2809 18.9375 75.8486 18.9375 73.3125V28.6875C18.9375 26.1514 19.9351 23.7191 21.7108 21.9258C23.4866 20.1325 25.895 19.125 28.4062 19.125Z" fill="url(#paint1_linear_178_515)"/>
<defs>
<linearGradient id="paint0_linear_178_515" x1="45.7656" y1="28.6875" x2="45.7656" y2="57.375" gradientUnits="userSpaceOnUse">
<stop stop-color="#6C965E"/>
<stop offset="1" stop-color="#FF8383"/>
</linearGradient>
<linearGradient id="paint1_linear_178_515" x1="53.6562" y1="0" x2="53.6563" y2="102" gradientUnits="userSpaceOnUse">
<stop stop-color="#6C965E"/>
<stop offset="1" stop-color="#FF8383"/>
</linearGradient>
</defs>
</svg>
