<svg width="102" height="101" viewBox="0 0 102 101" fill="none" xmlns="http://www.w3.org/2000/svg">
<path d="M39.3598 7.47451C40.3642 5.24876 41.9978 3.35856 44.0635 2.03218C46.1292 0.705809 48.5385 0 51.0005 0C53.4625 0 55.8718 0.705809 57.9375 2.03218C60.0032 3.35856 61.6369 5.24876 62.6413 7.47451C64.6349 6.04169 67.0051 5.21145 69.4652 5.08416C71.9253 4.95688 74.3699 5.53801 76.5036 6.75729C78.6372 7.97657 80.3684 9.78178 81.4879 11.9546C82.6074 14.1275 83.0672 16.575 82.8118 19.0011C85.2619 18.7482 87.7336 19.2035 89.928 20.312C92.1224 21.4205 93.9455 23.1348 95.1768 25.2475C96.4082 27.3602 96.9951 29.7809 96.8665 32.2168C96.738 34.6528 95.8995 36.9998 94.4525 38.9739C96.7003 39.9684 98.6092 41.5861 99.9487 43.6315C101.288 45.677 102.001 48.0627 102.001 50.5005C102.001 52.9384 101.288 55.3241 99.9487 57.3695C98.6092 59.4149 96.7003 61.0326 94.4525 62.0271C95.8995 64.0013 96.738 66.3482 96.8665 68.7842C96.9951 71.2202 96.4082 73.6408 95.1768 75.7535C93.9455 77.8662 92.1224 79.5805 89.928 80.689C87.7336 81.7975 85.2619 82.2528 82.8118 81.9999C83.0672 84.426 82.6074 86.8735 81.4879 89.0464C80.3684 91.2192 78.6372 93.0245 76.5036 94.2437C74.3699 95.463 71.9253 96.0441 69.4652 95.9169C67.0051 95.7896 64.6349 94.9593 62.6413 93.5265C61.6369 95.7523 60.0032 97.6425 57.9375 98.9688C55.8718 100.295 53.4625 101.001 51.0005 101.001C48.5385 101.001 46.1292 100.295 44.0635 98.9688C41.9978 97.6425 40.3642 95.7523 39.3598 93.5265C37.3661 94.9593 34.9959 95.7896 32.5358 95.9169C30.0757 96.0441 27.6311 95.463 25.4975 94.2437C23.3638 93.0245 21.6326 91.2192 20.5131 89.0464C19.3936 86.8735 18.9338 84.426 19.1893 81.9999C16.7391 82.2528 14.2674 81.7975 12.073 80.689C9.87863 79.5805 8.05555 77.8662 6.8242 75.7535C5.59284 73.6408 5.00596 71.2202 5.1345 68.7842C5.26304 66.3482 6.10151 64.0013 7.54852 62.0271C5.30073 61.0326 3.39181 59.4149 2.0523 57.3695C0.712797 55.3241 0 52.9384 0 50.5005C0 48.0627 0.712797 45.677 2.0523 43.6315C3.39181 41.5861 5.30073 39.9684 7.54852 38.9739C6.10151 36.9998 5.26304 34.6528 5.1345 32.2168C5.00596 29.7809 5.59284 27.3602 6.8242 25.2475C8.05555 23.1348 9.87863 21.4205 12.073 20.312C14.2674 19.2035 16.7391 18.7482 19.1893 19.0011C18.9338 16.575 19.3936 14.1275 20.5131 11.9546C21.6326 9.78178 23.3638 7.97657 25.4975 6.75729C27.6311 5.53801 30.0757 4.95688 32.5358 5.08416C34.9959 5.21145 37.3661 6.04169 39.3598 7.47451ZM51.0005 6.31301C50.1481 6.31432 49.3046 6.4849 48.5199 6.81466C47.7352 7.14442 47.0252 7.62667 46.432 8.23287C45.8388 8.83907 45.3745 9.55692 45.0664 10.3439C44.7583 11.131 44.6127 11.9712 44.6383 12.8149L44.702 13.3893C44.7785 13.8754 44.8869 14.5003 45.0463 15.2578C45.3586 16.7791 45.824 18.6792 46.4041 20.857C47.5644 25.2 49.1326 30.4078 50.7136 35.4641L51.0005 36.3731L51.2874 35.4641C52.8684 30.4141 54.4366 25.2 55.5969 20.857C56.177 18.6792 56.6424 16.7791 56.9548 15.2578C57.1228 14.4512 57.2589 13.6384 57.3628 12.8212L57.3755 12.6255C57.3755 10.9513 56.7039 9.34572 55.5083 8.1619C54.3128 6.97808 52.6913 6.31301 51.0005 6.31301ZM12.7505 56.813L12.9418 56.8004L13.5219 56.7373C14.1542 56.6424 14.7835 56.5288 15.4089 56.3964C16.9453 56.0871 18.8641 55.6263 21.0635 55.0518C26.0089 53.7264 30.9271 52.3037 35.8153 50.7846L36.7333 50.5005L35.8153 50.2164C30.9271 48.6973 26.0089 47.2746 21.0635 45.9492C19.1914 45.4501 17.3058 45.0018 15.4089 44.6046C14.5943 44.4382 13.7734 44.3034 12.9481 44.2006L12.7505 44.188C11.0598 44.188 9.43825 44.8531 8.24271 46.0369C7.04717 47.2207 6.37552 48.8263 6.37552 50.5005C6.37552 52.1747 7.04717 53.7803 8.24271 54.9641C9.43825 56.1479 11.0598 56.813 12.7505 56.813ZM57.3755 88.3755L57.3628 88.1861C57.2589 87.369 57.1228 86.5561 56.9548 85.7495C56.5548 83.8689 56.102 81.9997 55.5969 80.144C54.2584 75.2471 52.8216 70.3771 51.2874 65.5369L51.0005 64.6279L50.7136 65.5369C49.1326 70.5869 47.5644 75.801 46.4041 80.144C45.824 82.3218 45.3586 84.2219 45.0463 85.7432C44.8782 86.5498 44.7421 87.3626 44.6383 88.1798L44.6255 88.3755C44.6255 90.0497 45.2972 91.6553 46.4927 92.8391C47.6883 94.0229 49.3098 94.688 51.0005 94.688C52.6913 94.688 54.3128 94.0229 55.5083 92.8391C56.7039 91.6553 57.3755 90.0497 57.3755 88.3755ZM21.0635 74.9046L21.2229 74.7973C21.8872 74.3007 22.5315 73.7784 23.1545 73.2318C24.3275 72.1966 25.7555 70.852 27.3684 69.2613C30.984 65.6659 34.5271 61.9997 37.9955 58.2649L38.6521 57.5642L37.715 57.7725C32.7126 58.8783 27.7327 60.0821 22.7784 61.3833C20.5854 61.9703 18.6984 62.5195 17.2066 63.0119C16.4157 63.2722 15.6352 63.5628 14.867 63.883L14.6949 63.9714C13.964 64.3829 13.3226 64.9334 12.8075 65.5913C12.2924 66.2493 11.9138 67.0016 11.6935 67.805C11.4732 68.6084 11.4156 69.447 11.5239 70.2726C11.6323 71.0981 11.9045 71.8943 12.3249 72.6153C12.7453 73.3362 13.3055 73.9677 13.9734 74.4734C14.6412 74.9791 15.4035 75.349 16.2163 75.5618C17.0291 75.7745 17.8764 75.826 18.7094 75.7133C19.5424 75.6005 20.3446 75.3257 21.0699 74.9046H21.0635ZM28.688 88.7669C30.1522 89.6039 31.8923 89.8308 33.5254 89.3975C35.1585 88.9642 36.5509 87.9063 37.3963 86.4565L37.4855 86.2861C37.5493 86.1598 37.6194 85.9831 37.715 85.7558C37.9495 85.1668 38.1663 84.5711 38.3653 83.9694C38.8625 82.4986 39.4171 80.6238 40.01 78.4523C41.3245 73.5466 42.5402 68.6156 43.6565 63.6621L43.8669 62.7341L43.1656 63.378C39.3919 66.8126 35.6873 70.321 32.054 73.9009C30.6802 75.2541 29.3431 76.6433 28.0441 78.0672C27.4923 78.6864 26.9649 79.3265 26.4631 79.9862L26.3548 80.144C25.5094 81.5939 25.2803 83.3168 25.7179 84.9339C26.1555 86.551 27.2239 87.9298 28.688 88.7669ZM87.3125 37.0296C88.7648 36.1866 89.8213 34.809 90.2516 33.1974C90.6819 31.5859 90.451 29.8712 89.6093 28.4276C88.7675 26.984 87.3833 25.9287 85.7587 25.492C84.1341 25.0552 82.4009 25.2725 80.9375 26.0964L80.7781 26.2037C80.1137 26.7001 79.4693 27.2224 78.8465 27.7692C77.4056 29.0544 76.0005 30.3785 74.6326 31.7398C71.0171 35.3352 67.474 39.0014 64.0055 42.7361L63.3553 43.4368L64.2924 43.2285C69.2928 42.1231 74.2706 40.9193 79.2226 39.6178C81.422 39.0307 83.3154 38.4815 84.8008 37.9891C85.5919 37.7292 86.3723 37.4386 87.1404 37.118C87.1986 37.0902 87.256 37.0607 87.3125 37.0296ZM73.313 12.2341C71.8488 11.3971 70.1088 11.1702 68.4757 11.6035C66.8426 12.0368 65.4502 13.0947 64.6048 14.5445L64.5155 14.7149C64.4518 14.8412 64.3816 15.0179 64.286 15.2452C64.0515 15.8342 63.8347 16.4299 63.6358 17.0316C63.1385 18.5024 62.5839 20.3773 61.991 22.5551C60.6767 27.4586 59.4609 32.3875 58.3445 37.3389L58.1341 38.2669L58.8354 37.623C62.6091 34.1884 66.3137 30.6801 69.947 27.1001C71.5535 25.503 72.9114 24.089 73.9569 22.9338C74.509 22.3149 75.0364 21.6747 75.5379 21.0148L75.6463 20.857C76.4916 19.4072 76.7207 17.6842 76.2831 16.0671C75.8456 14.45 74.7772 13.0713 73.313 12.2341ZM89.2505 56.813C90.9413 56.813 92.5628 56.1479 93.7583 54.9641C94.9539 53.7803 95.6255 52.1747 95.6255 50.5005C95.6255 48.8263 94.9539 47.2207 93.7583 46.0369C92.5628 44.8531 90.9413 44.188 89.2505 44.188L89.0593 44.2006C88.234 44.3034 87.4131 44.4382 86.5985 44.6046C85.0558 44.9139 83.1369 45.3748 80.9375 45.9492C76.5515 47.0981 71.2921 48.6509 66.1858 50.2164L65.2678 50.5005L66.1858 50.7846C71.2858 52.3501 76.5515 53.9029 80.9375 55.0518C83.1369 55.6263 85.0558 56.0871 86.5921 56.3964C87.4068 56.5628 88.2276 56.6976 89.0529 56.8004L89.2505 56.813ZM12.3553 28.4068C11.9295 29.1386 11.6563 29.9476 11.552 30.7859C11.4477 31.6241 11.5143 32.4746 11.7479 33.2869C11.9815 34.0992 12.3774 34.8568 12.9121 35.5149C13.4467 36.173 14.1093 36.7181 14.8606 37.118L15.3961 37.3389C15.8551 37.5283 16.4544 37.743 17.2003 37.9891C18.6856 38.4815 20.579 39.0307 22.772 39.6178C27.7263 40.9189 32.7062 42.1227 37.7086 43.2285L38.6458 43.4368L37.9891 42.7361C34.5229 39.0013 30.9819 35.3351 27.3684 31.7398C26.0026 30.3786 24.5996 29.0546 23.1609 27.7692C22.5358 27.2224 21.8893 26.7002 21.2229 26.2037L21.0635 26.0964C19.5993 25.2593 17.8593 25.0325 16.2262 25.4658C14.5931 25.8991 13.2007 26.957 12.3553 28.4068ZM26.3548 20.857L26.4631 21.0148C26.9647 21.6726 27.4921 22.3106 28.0441 22.9275C29.0896 24.089 30.4475 25.503 32.054 27.1001C35.6849 30.6803 39.3874 34.1886 43.1593 37.623L43.8669 38.2669L43.6565 37.3389C42.5401 32.3875 41.3244 27.4586 40.01 22.5551C39.4171 20.3773 38.8625 18.5024 38.3653 17.0316C38.1027 16.2483 37.8092 15.4755 37.4855 14.7149L37.3963 14.5445C36.9807 13.8208 36.4247 13.1856 35.7603 12.6756C35.0958 12.1655 34.336 11.7906 33.5247 11.5725C32.7133 11.3544 31.8664 11.2974 31.0327 11.4047C30.1989 11.512 29.3949 11.7815 28.6668 12.1978C27.9387 12.614 27.301 13.1688 26.7903 13.8301C26.2796 14.4914 25.906 15.2462 25.6911 16.051C25.4762 16.8559 25.4242 17.6948 25.5381 18.5196C25.652 19.3445 25.9296 20.1388 26.3548 20.857ZM89.6458 72.5943C90.4911 71.1444 90.7202 69.4214 90.2826 67.8043C89.8451 66.1873 88.7767 64.8085 87.3125 63.9714L87.1404 63.883C86.3723 63.5625 85.5918 63.2719 84.8008 63.0119C83.3154 62.5195 81.422 61.9703 79.2226 61.3833C74.2706 60.0818 69.2928 58.878 64.2924 57.7725L63.3553 57.5642L64.0055 58.2649C67.4741 61.9996 71.0171 65.6658 74.6326 69.2613C76.2455 70.852 77.6735 72.1966 78.8401 73.2318C79.465 73.7788 80.1115 74.3011 80.7781 74.7973L80.9375 74.9046C82.4017 75.7417 84.1418 75.9685 85.7749 75.5353C87.408 75.102 88.8004 74.0441 89.6458 72.5943ZM64.6048 86.4565C65.4562 87.8945 66.8474 88.9407 68.4749 89.3668C70.1024 89.7929 71.8341 89.5642 73.2919 88.7307C74.7498 87.8973 75.8156 86.5266 76.2567 84.9179C76.6977 83.3092 76.4783 81.5931 75.6463 80.144L75.5379 79.9862C75.036 79.3287 74.5086 78.6907 73.9569 78.0735C72.6589 76.6468 71.3218 75.2554 69.947 73.9009C66.3163 70.3206 62.6138 66.8122 58.8418 63.378L58.1341 62.7341L58.3445 63.6621C59.4609 68.6135 60.6766 73.5424 61.991 78.4459C62.5839 80.6238 63.1385 82.4986 63.6358 83.9694C63.8982 84.7527 64.1917 85.5256 64.5155 86.2861C64.5437 86.3437 64.5735 86.4005 64.6048 86.4565ZM51.0005 59.9693C53.5366 59.9693 55.9689 58.9717 57.7622 57.1959C59.5555 55.4202 60.563 53.0118 60.563 50.5005C60.563 47.9892 59.5555 45.5808 57.7622 43.8051C55.9689 42.0294 53.5366 41.0318 51.0005 41.0318C48.4644 41.0318 46.0321 42.0294 44.2388 43.8051C42.4455 45.5808 41.438 47.9892 41.438 50.5005C41.438 53.0118 42.4455 55.4202 44.2388 57.1959C46.0321 58.9717 48.4644 59.9693 51.0005 59.9693Z" fill="url(#paint0_linear_178_513)"/>
<defs>
<linearGradient id="paint0_linear_178_513" x1="51.0005" y1="0" x2="51.0005" y2="101.001" gradientUnits="userSpaceOnUse">
<stop stop-color="#6C965E"/>
<stop offset="1" stop-color="#FF8383"/>
</linearGradient>
</defs>
</svg>
