<svg width="101" height="101" viewBox="0 0 101 101" fill="none" xmlns="http://www.w3.org/2000/svg">
<g clip-path="url(#clip0_178_508)">
<path d="M34.7188 60.0382C35.1985 66.0603 39.9581 70.7505 48.4926 71.306V75.75H52.2801V71.2744C61.1176 70.6558 66.2812 65.9341 66.2812 59.0787C66.2812 52.8483 62.3296 49.6352 55.2659 47.9687L52.2801 47.2617V35.1606C56.0676 35.5899 58.479 37.6604 59.0597 40.5263H65.7005C65.2208 34.7251 60.2465 30.1864 52.2801 29.694V25.25H48.4926V29.7887C40.9492 30.5272 35.8045 35.0659 35.8045 41.4858C35.8045 47.167 39.6299 50.7778 45.9866 52.2612L48.4926 52.8798V65.7194C44.6104 65.1324 42.0412 63.0051 41.4605 60.0382H34.7188ZM48.4611 46.3653C44.7367 45.5005 42.7167 43.7393 42.7167 41.0881C42.7167 38.1212 44.8945 35.8992 48.4926 35.249V46.359L48.4611 46.3653ZM52.8293 53.8961C57.3554 54.944 59.4448 56.6421 59.4448 59.6405C59.4448 63.0619 56.8441 65.4101 52.2801 65.8394V53.7699L52.8293 53.8961Z" fill="url(#paint0_linear_178_508)"/>
<path d="M50.5 94.6875C38.7807 94.6875 27.5415 90.032 19.2547 81.7453C10.968 73.4585 6.3125 62.2193 6.3125 50.5C6.3125 38.7807 10.968 27.5415 19.2547 19.2547C27.5415 10.968 38.7807 6.3125 50.5 6.3125C62.2193 6.3125 73.4585 10.968 81.7453 19.2547C90.032 27.5415 94.6875 38.7807 94.6875 50.5C94.6875 62.2193 90.032 73.4585 81.7453 81.7453C73.4585 90.032 62.2193 94.6875 50.5 94.6875ZM50.5 101C63.8934 101 76.7383 95.6795 86.2089 86.2089C95.6795 76.7383 101 63.8934 101 50.5C101 37.1066 95.6795 24.2617 86.2089 14.7911C76.7383 5.32052 63.8934 0 50.5 0C37.1066 0 24.2617 5.32052 14.7911 14.7911C5.32052 24.2617 0 37.1066 0 50.5C0 63.8934 5.32052 76.7383 14.7911 86.2089C24.2617 95.6795 37.1066 101 50.5 101Z" fill="url(#paint1_linear_178_508)"/>
<path d="M50.5 85.2188C41.292 85.2188 32.4612 81.5609 25.9501 75.0499C19.4391 68.5388 15.7812 59.708 15.7812 50.5C15.7812 41.292 19.4391 32.4612 25.9501 25.9501C32.4612 19.4391 41.292 15.7812 50.5 15.7812C59.708 15.7812 68.5388 19.4391 75.0499 25.9501C81.5609 32.4612 85.2188 41.292 85.2188 50.5C85.2188 59.708 81.5609 68.5388 75.0499 75.0499C68.5388 81.5609 59.708 85.2188 50.5 85.2188ZM50.5 88.375C55.4738 88.375 60.3989 87.3953 64.9941 85.4919C69.5893 83.5885 73.7646 80.7987 77.2817 77.2817C80.7987 73.7646 83.5885 69.5893 85.4919 64.9941C87.3953 60.3989 88.375 55.4738 88.375 50.5C88.375 45.5262 87.3953 40.6011 85.4919 36.0059C83.5885 31.4107 80.7987 27.2353 77.2817 23.7183C73.7646 20.2013 69.5893 17.4115 64.9941 15.5081C60.3989 13.6047 55.4738 12.625 50.5 12.625C40.4549 12.625 30.8213 16.6154 23.7183 23.7183C16.6154 30.8213 12.625 40.4549 12.625 50.5C12.625 60.5451 16.6154 70.1787 23.7183 77.2817C30.8213 84.3846 40.4549 88.375 50.5 88.375Z" fill="url(#paint2_linear_178_508)"/>
</g>
<defs>
<linearGradient id="paint0_linear_178_508" x1="50.5" y1="25.25" x2="50.5" y2="75.75" gradientUnits="userSpaceOnUse">
<stop stop-color="#6C965E"/>
<stop offset="1" stop-color="#FF8383"/>
</linearGradient>
<linearGradient id="paint1_linear_178_508" x1="50.5" y1="0" x2="50.5" y2="101" gradientUnits="userSpaceOnUse">
<stop stop-color="#6C965E"/>
<stop offset="1" stop-color="#FF8383"/>
</linearGradient>
<linearGradient id="paint2_linear_178_508" x1="50.5" y1="12.625" x2="50.5" y2="88.375" gradientUnits="userSpaceOnUse">
<stop stop-color="#6C965E"/>
<stop offset="1" stop-color="#FF8383"/>
</linearGradient>
<clipPath id="clip0_178_508">
<rect width="101" height="101" fill="white"/>
</clipPath>
</defs>
</svg>
