<svg width="101" height="102" viewBox="0 0 101 102" fill="none" xmlns="http://www.w3.org/2000/svg">
<path d="M68.516 45.5558C68.8099 45.8519 69.0431 46.2036 69.2022 46.5909C69.3613 46.9781 69.4432 47.3933 69.4432 47.8125C69.4432 48.2318 69.3613 48.6469 69.2022 49.0342C69.0431 49.4214 68.8099 49.7732 68.516 50.0693L49.5785 69.1943C49.2853 69.4911 48.937 69.7266 48.5535 69.8873C48.1701 70.048 47.759 70.1307 47.3438 70.1307C46.9287 70.1307 46.5176 70.048 46.1341 69.8873C45.7507 69.7266 45.4024 69.4911 45.1092 69.1943L35.6405 59.6318C35.347 59.3354 35.1142 58.9836 34.9554 58.5964C34.7966 58.2092 34.7148 57.7941 34.7148 57.375C34.7148 56.9559 34.7966 56.5409 34.9554 56.1537C35.1142 55.7665 35.347 55.4146 35.6405 55.1183C36.2331 54.5197 37.0369 54.1835 37.8751 54.1835C38.2901 54.1835 38.701 54.266 39.0845 54.4264C39.4679 54.5868 39.8163 54.8219 40.1097 55.1183L47.3438 62.4304L64.0467 45.5558C64.3399 45.2589 64.6882 45.0234 65.0716 44.8627C65.4551 44.702 65.8662 44.6193 66.2813 44.6193C66.6965 44.6193 67.1076 44.702 67.491 44.8627C67.8745 45.0234 68.2228 45.2589 68.516 45.5558Z" fill="url(#paint0_linear_178_505)"/>
<path d="M22.0938 0C22.9308 0 23.7336 0.335825 24.3256 0.933597C24.9175 1.53137 25.25 2.34212 25.25 3.1875V6.375H75.75V3.1875C75.75 2.34212 76.0825 1.53137 76.6744 0.933597C77.2663 0.335825 78.0692 0 78.9062 0C79.7433 0 80.5462 0.335825 81.1381 0.933597C81.73 1.53137 82.0625 2.34212 82.0625 3.1875V6.375H88.375C91.7234 6.375 94.9346 7.7183 97.3022 10.1094C99.6699 12.5005 101 15.7435 101 19.125V89.25C101 92.6315 99.6699 95.8745 97.3022 98.2656C94.9346 100.657 91.7234 102 88.375 102H12.625C9.27664 102 6.06542 100.657 3.69778 98.2656C1.33013 95.8745 0 92.6315 0 89.25V19.125C0 15.7435 1.33013 12.5005 3.69778 10.1094C6.06542 7.7183 9.27664 6.375 12.625 6.375H18.9375V3.1875C18.9375 2.34212 19.27 1.53137 19.8619 0.933597C20.4539 0.335825 21.2567 0 22.0938 0ZM6.3125 25.5V89.25C6.3125 90.9408 6.97756 92.5623 8.16139 93.7578C9.34521 94.9533 10.9508 95.625 12.625 95.625H88.375C90.0492 95.625 91.6548 94.9533 92.8386 93.7578C94.0224 92.5623 94.6875 90.9408 94.6875 89.25V25.5H6.3125Z" fill="url(#paint1_linear_178_505)"/>
<defs>
<linearGradient id="paint0_linear_178_505" x1="52.079" y1="44.6193" x2="52.079" y2="70.1307" gradientUnits="userSpaceOnUse">
<stop stop-color="#6C965E"/>
<stop offset="1" stop-color="#FF8383"/>
</linearGradient>
<linearGradient id="paint1_linear_178_505" x1="50.5" y1="0" x2="50.5" y2="102" gradientUnits="userSpaceOnUse">
<stop stop-color="#6C965E"/>
<stop offset="1" stop-color="#FF8383"/>
</linearGradient>
</defs>
</svg>
