<svg width="34" height="34" viewBox="0 0 34 34" fill="none" xmlns="http://www.w3.org/2000/svg">
<path fill-rule="evenodd" clip-rule="evenodd" d="M17 31.875C20.9451 31.875 24.7286 30.3078 27.5182 27.5182C30.3078 24.7286 31.875 20.9451 31.875 17C31.875 13.0549 30.3078 9.27139 27.5182 6.48179C24.7286 3.69219 20.9451 2.125 17 2.125C13.0549 2.125 9.27139 3.69219 6.48178 6.48179C3.69218 9.27139 2.125 13.0549 2.125 17C2.125 20.9451 3.69218 24.7286 6.48179 27.5182C9.27139 30.3078 13.0549 31.875 17 31.875ZM17 3.0716e-06C21.5087 2.87452e-06 25.8327 1.79107 29.0208 4.97919C32.2089 8.1673 34 12.4913 34 17C34 21.5087 32.2089 25.8327 29.0208 29.0208C25.8327 32.2089 21.5087 34 17 34C12.4913 34 8.1673 32.2089 4.97918 29.0208C1.79107 25.8327 -5.46013e-07 21.5087 -7.43094e-07 17C-9.40174e-07 12.4913 1.79107 8.1673 4.97918 4.97919C8.1673 1.79107 12.4913 3.26868e-06 17 3.0716e-06ZM9.5625 15.9375C9.28071 15.9375 9.01046 16.0494 8.8112 16.2487C8.61194 16.448 8.5 16.7182 8.5 17C8.5 17.2818 8.61194 17.552 8.8112 17.7513C9.01046 17.9506 9.28071 18.0625 9.5625 18.0625L21.8726 18.0625L17.3102 22.6228C17.1107 22.8223 16.9987 23.0929 16.9987 23.375C16.9987 23.6571 17.1107 23.9277 17.3102 24.1273C17.5098 24.3268 17.7803 24.4388 18.0625 24.4388C18.3446 24.4388 18.6152 24.3268 18.8147 24.1273L25.1897 17.7523C25.2887 17.6536 25.3672 17.5363 25.4208 17.4072C25.4743 17.2781 25.5019 17.1398 25.5019 17C25.5019 16.8602 25.4743 16.7219 25.4208 16.5928C25.3672 16.4637 25.2887 16.3464 25.1897 16.2478L18.8147 9.87275C18.6152 9.67324 18.3446 9.56116 18.0625 9.56116C17.7803 9.56116 17.5098 9.67324 17.3102 9.87275C17.1107 10.0723 16.9987 10.3429 16.9987 10.625C16.9987 10.9071 17.1107 11.1777 17.3102 11.3773L21.8726 15.9375L9.5625 15.9375Z" fill="#B3C985"/>
</svg>
