<svg width="260" height="260" viewBox="0 0 260 260" fill="none" xmlns="http://www.w3.org/2000/svg">
<rect x="1.5" y="1.5" width="257" height="257" rx="8.5" stroke="url(#paint0_linear_561_571)" stroke-width="3"/>
<g filter="url(#filter0_d_561_571)">
<rect x="19" y="20" width="220" height="220" rx="10" fill="white"/>
</g>
<mask id="mask0_561_571" style="mask-type:alpha" maskUnits="userSpaceOnUse" x="19" y="20" width="220" height="220">
<rect x="19" y="20" width="220" height="220" rx="10" fill="white"/>
</mask>
<g mask="url(#mask0_561_571)">
<path opacity="0.5" d="M65.3683 60V48.0307L93.3349 22.1357C95.7134 19.8339 97.7083 17.7623 99.3195 15.9209C100.956 14.0794 102.197 12.2764 103.041 10.5117C103.885 8.72141 104.307 6.79047 104.307 4.71887C104.307 2.41708 103.782 0.434994 102.734 -1.2274C101.685 -2.91538 100.253 -4.20693 98.4372 -5.10207C96.6213 -6.02278 94.5625 -6.48314 92.2608 -6.48314C89.8567 -6.48314 87.7595 -5.99721 85.9692 -5.02534C84.1789 -4.05348 82.7979 -2.65962 81.826 -0.843774C80.8541 0.972076 80.3682 3.13319 80.3682 5.63958H64.601C64.601 0.498932 65.7647 -3.96397 68.092 -7.74912C70.4194 -11.5343 73.6803 -14.4627 77.8746 -16.5343C82.069 -18.6059 86.9027 -19.6417 92.3758 -19.6417C98.0024 -19.6417 102.9 -18.6442 107.069 -16.6493C111.263 -14.68 114.524 -11.9435 116.851 -8.43966C119.179 -4.93583 120.342 -0.920501 120.342 3.60634C120.342 6.57308 119.754 9.50146 118.578 12.3915C117.427 15.2815 115.368 18.4912 112.401 22.0206C109.435 25.5244 105.253 29.7316 99.8566 34.642L88.3861 45.8824V46.4195H121.378V60H65.3683ZM130.537 46.1893V33.1075L163.338 -18.5675H174.617V-0.460145H167.941L147.264 32.2635V32.8773H193.875V46.1893H130.537ZM168.248 60V42.1996L168.555 36.4067V-18.5675H184.131V60H168.248Z" fill="url(#paint1_linear_561_571)"/>
<path opacity="0.5" d="M65.3683 267V255.031L93.3349 229.136C95.7134 226.834 97.7083 224.762 99.3195 222.921C100.956 221.079 102.197 219.276 103.041 217.512C103.885 215.721 104.307 213.79 104.307 211.719C104.307 209.417 103.782 207.435 102.734 205.773C101.685 204.085 100.253 202.793 98.4372 201.898C96.6213 200.977 94.5625 200.517 92.2608 200.517C89.8567 200.517 87.7595 201.003 85.9692 201.975C84.1789 202.947 82.7979 204.34 81.826 206.156C80.8541 207.972 80.3682 210.133 80.3682 212.64H64.601C64.601 207.499 65.7647 203.036 68.092 199.251C70.4194 195.466 73.6803 192.537 77.8746 190.466C82.069 188.394 86.9027 187.358 92.3758 187.358C98.0024 187.358 102.9 188.356 107.069 190.351C111.263 192.32 114.524 195.057 116.851 198.56C119.179 202.064 120.342 206.079 120.342 210.606C120.342 213.573 119.754 216.501 118.578 219.391C117.427 222.281 115.368 225.491 112.401 229.021C109.435 232.524 105.253 236.732 99.8566 241.642L88.3861 252.882V253.419H121.378V267H65.3683ZM133.415 267V255.031L161.381 229.136C163.76 226.834 165.755 224.762 167.366 222.921C169.003 221.079 170.243 219.276 171.087 217.512C171.931 215.721 172.353 213.79 172.353 211.719C172.353 209.417 171.829 207.435 170.78 205.773C169.732 204.085 168.299 202.793 166.484 201.898C164.668 200.977 162.609 200.517 160.307 200.517C157.903 200.517 155.806 201.003 154.016 201.975C152.225 202.947 150.844 204.34 149.872 206.156C148.901 207.972 148.415 210.133 148.415 212.64H132.647C132.647 207.499 133.811 203.036 136.138 199.251C138.466 195.466 141.727 192.537 145.921 190.466C150.115 188.394 154.949 187.358 160.422 187.358C166.049 187.358 170.947 188.356 175.115 190.351C179.31 192.32 182.571 195.057 184.898 198.56C187.225 202.064 188.389 206.079 188.389 210.606C188.389 213.573 187.801 216.501 186.624 219.391C185.473 222.281 183.415 225.491 180.448 229.021C177.481 232.524 173.299 236.732 167.903 241.642L156.433 252.882V253.419H189.425V267H133.415Z" fill="url(#paint2_linear_561_571)"/>
</g>
<path d="M52.0429 171.273V153.5L85.9897 125.418C88.2409 123.552 90.1664 121.804 91.766 120.175C93.3952 118.516 94.6393 116.813 95.4983 115.065C96.387 113.317 96.8313 111.377 96.8313 109.244C96.8313 106.904 96.3277 104.905 95.3206 103.246C94.3431 101.587 92.9805 100.313 91.2328 99.4246C89.4851 98.5063 87.4708 98.0472 85.1899 98.0472C82.909 98.0472 80.8947 98.5063 79.147 99.4246C77.4289 100.343 76.0959 101.691 75.148 103.468C74.2001 105.245 73.7262 107.408 73.7262 109.955H50.2656C50.2656 103.557 51.7022 98.0472 54.5756 93.4261C57.4489 88.8051 61.5071 85.2505 66.7502 82.7622C71.9933 80.274 78.1399 79.0298 85.1899 79.0298C92.4769 79.0298 98.7864 80.1999 104.118 82.5401C109.48 84.8506 113.612 88.109 116.515 92.3153C119.448 96.5216 120.914 101.454 120.914 107.111C120.914 110.607 120.188 114.087 118.737 117.553C117.285 120.989 114.679 124.796 110.917 128.973C107.155 133.149 101.808 138.126 94.8763 143.902L86.3451 151.011V151.544H121.892V171.273H52.0429ZM168.479 172.517C161.311 172.517 154.942 171.288 149.373 168.829C143.834 166.341 139.48 162.919 136.31 158.565C133.14 154.21 131.541 149.204 131.511 143.547H156.394C156.423 145.294 156.957 146.864 157.993 148.256C159.06 149.619 160.511 150.685 162.348 151.456C164.184 152.226 166.287 152.611 168.657 152.611C170.938 152.611 172.952 152.211 174.7 151.411C176.448 150.582 177.81 149.441 178.788 147.99C179.765 146.538 180.239 144.88 180.21 143.013C180.239 141.177 179.677 139.548 178.521 138.126C177.396 136.704 175.811 135.593 173.767 134.793C171.723 133.993 169.368 133.594 166.702 133.594H157.46V116.531H166.702C169.161 116.531 171.323 116.131 173.189 115.332C175.085 114.532 176.551 113.421 177.588 111.999C178.655 110.577 179.173 108.948 179.143 107.111C179.173 105.334 178.744 103.764 177.855 102.402C176.966 101.039 175.722 99.9726 174.122 99.2024C172.553 98.4322 170.731 98.0472 168.657 98.0472C166.406 98.0472 164.392 98.4471 162.614 99.2468C160.867 100.047 159.489 101.157 158.482 102.579C157.475 104.001 156.957 105.63 156.927 107.467H133.289C133.318 101.898 134.844 96.9808 137.865 92.7152C140.916 88.4496 145.093 85.1024 150.395 82.6734C155.698 80.2444 161.785 79.0298 168.657 79.0298C175.381 79.0298 181.321 80.1703 186.475 82.4512C191.659 84.7321 195.702 87.872 198.605 91.871C201.538 95.8403 202.989 100.387 202.959 105.512C203.019 110.607 201.271 114.784 197.716 118.042C194.191 121.3 189.718 123.226 184.298 123.818V124.529C191.644 125.329 197.168 127.58 200.871 131.283C204.574 134.956 206.396 139.577 206.336 145.146C206.366 150.478 204.766 155.203 201.538 159.32C198.338 163.438 193.88 166.666 188.163 169.007C182.476 171.347 175.915 172.517 168.479 172.517Z" fill="url(#paint3_linear_561_571)"/>
<defs>
<filter id="filter0_d_561_571" x="17" y="20" width="224" height="224" filterUnits="userSpaceOnUse" color-interpolation-filters="sRGB">
<feFlood flood-opacity="0" result="BackgroundImageFix"/>
<feColorMatrix in="SourceAlpha" type="matrix" values="0 0 0 0 0 0 0 0 0 0 0 0 0 0 0 0 0 0 127 0" result="hardAlpha"/>
<feOffset dy="2"/>
<feGaussianBlur stdDeviation="1"/>
<feComposite in2="hardAlpha" operator="out"/>
<feColorMatrix type="matrix" values="0 0 0 0 0 0 0 0 0 0 0 0 0 0 0 0 0 0 0.12 0"/>
<feBlend mode="normal" in2="BackgroundImageFix" result="effect1_dropShadow_561_571"/>
<feBlend mode="normal" in="SourceGraphic" in2="effect1_dropShadow_561_571" result="shape"/>
</filter>
<linearGradient id="paint0_linear_561_571" x1="130" y1="0" x2="130" y2="260" gradientUnits="userSpaceOnUse">
<stop stop-color="#FF8383"/>
<stop offset="1" stop-color="#6C965E"/>
</linearGradient>
<linearGradient id="paint1_linear_561_571" x1="129" y1="-45" x2="129" y2="86" gradientUnits="userSpaceOnUse">
<stop stop-color="#FF8383"/>
<stop offset="1" stop-color="#6C965E"/>
</linearGradient>
<linearGradient id="paint2_linear_561_571" x1="127.5" y1="162" x2="127.5" y2="293" gradientUnits="userSpaceOnUse">
<stop stop-color="#FF8383"/>
<stop offset="1" stop-color="#6C965E"/>
</linearGradient>
<linearGradient id="paint3_linear_561_571" x1="129" y1="50.2727" x2="129" y2="201.273" gradientUnits="userSpaceOnUse">
<stop stop-color="#FF8383"/>
<stop offset="1" stop-color="#6C965E"/>
</linearGradient>
</defs>
</svg>
