<svg width="260" height="260" viewBox="0 0 260 260" fill="none" xmlns="http://www.w3.org/2000/svg">
<rect x="1.5" y="1.5" width="257" height="257" rx="8.5" stroke="url(#paint0_linear_561_575)" stroke-width="3"/>
<g filter="url(#filter0_d_561_575)">
<rect x="19" y="20" width="220" height="220" rx="10" fill="white"/>
</g>
<mask id="mask0_561_575" style="mask-type:alpha" maskUnits="userSpaceOnUse" x="19" y="20" width="220" height="220">
<rect x="19" y="20" width="220" height="220" rx="10" fill="white"/>
</mask>
<g mask="url(#mask0_561_575)">
<path opacity="0.5" d="M68.3683 60V48.0307L96.3349 22.1357C98.7134 19.8339 100.708 17.7623 102.32 15.9209C103.956 14.0794 105.197 12.2764 106.041 10.5117C106.885 8.72141 107.307 6.79047 107.307 4.71887C107.307 2.41708 106.782 0.434994 105.734 -1.2274C104.685 -2.91538 103.253 -4.20693 101.437 -5.10207C99.6213 -6.02278 97.5625 -6.48314 95.2608 -6.48314C92.8567 -6.48314 90.7595 -5.99721 88.9692 -5.02534C87.1789 -4.05348 85.7979 -2.65962 84.826 -0.843774C83.8541 0.972076 83.3682 3.13319 83.3682 5.63958H67.601C67.601 0.498932 68.7647 -3.96397 71.092 -7.74912C73.4194 -11.5343 76.6803 -14.4627 80.8746 -16.5343C85.069 -18.6059 89.9027 -19.6417 95.3758 -19.6417C101.002 -19.6417 105.9 -18.6442 110.069 -16.6493C114.263 -14.68 117.524 -11.9435 119.851 -8.43966C122.179 -4.93583 123.342 -0.920501 123.342 3.60634C123.342 6.57308 122.754 9.50146 121.578 12.3915C120.427 15.2815 118.368 18.4912 115.401 22.0206C112.435 25.5244 108.253 29.7316 102.857 34.642L91.3861 45.8824V46.4195H124.378V60H68.3683ZM136.415 60V48.0307L164.381 22.1357C166.76 19.8339 168.755 17.7623 170.366 15.9209C172.003 14.0794 173.243 12.2764 174.087 10.5117C174.931 8.72141 175.353 6.79047 175.353 4.71887C175.353 2.41708 174.829 0.434994 173.78 -1.2274C172.732 -2.91538 171.299 -4.20693 169.484 -5.10207C167.668 -6.02278 165.609 -6.48314 163.307 -6.48314C160.903 -6.48314 158.806 -5.99721 157.016 -5.02534C155.225 -4.05348 153.844 -2.65962 152.872 -0.843774C151.901 0.972076 151.415 3.13319 151.415 5.63958H135.647C135.647 0.498932 136.811 -3.96397 139.138 -7.74912C141.466 -11.5343 144.727 -14.4627 148.921 -16.5343C153.115 -18.6059 157.949 -19.6417 163.422 -19.6417C169.049 -19.6417 173.947 -18.6442 178.115 -16.6493C182.31 -14.68 185.571 -11.9435 187.898 -8.43966C190.225 -4.93583 191.389 -0.920501 191.389 3.60634C191.389 6.57308 190.801 9.50146 189.624 12.3915C188.473 15.2815 186.415 18.4912 183.448 22.0206C180.481 25.5244 176.299 29.7316 170.903 34.642L159.433 45.8824V46.4195H192.425V60H136.415Z" fill="url(#paint1_linear_561_575)"/>
<path opacity="0.5" d="M64.3683 267V255.031L92.3349 229.136C94.7134 226.834 96.7083 224.762 98.3195 222.921C99.9564 221.079 101.197 219.276 102.041 217.512C102.885 215.721 103.307 213.79 103.307 211.719C103.307 209.417 102.782 207.435 101.734 205.773C100.685 204.085 99.2531 202.793 97.4372 201.898C95.6213 200.977 93.5625 200.517 91.2608 200.517C88.8567 200.517 86.7595 201.003 84.9692 201.975C83.1789 202.947 81.7979 204.34 80.826 206.156C79.8541 207.972 79.3682 210.133 79.3682 212.64H63.601C63.601 207.499 64.7647 203.036 67.092 199.251C69.4194 195.466 72.6803 192.537 76.8746 190.466C81.069 188.394 85.9027 187.358 91.3758 187.358C97.0024 187.358 101.9 188.356 106.069 190.351C110.263 192.32 113.524 195.057 115.851 198.56C118.179 202.064 119.342 206.079 119.342 210.606C119.342 213.573 118.754 216.501 117.578 219.391C116.427 222.281 114.368 225.491 111.401 229.021C108.435 232.524 104.253 236.732 98.8566 241.642L87.3861 252.882V253.419H120.378V267H64.3683ZM163.22 268.726C156.622 268.701 150.944 267.077 146.187 263.854C141.456 260.632 137.811 255.964 135.254 249.852C132.722 243.739 131.468 236.386 131.494 227.793C131.494 219.225 132.76 211.923 135.292 205.888C137.849 199.852 141.494 195.261 146.225 192.115C150.982 188.944 156.647 187.358 163.22 187.358C169.793 187.358 175.445 188.944 180.177 192.115C184.934 195.287 188.591 199.89 191.149 205.926C193.706 211.936 194.972 219.225 194.946 227.793C194.946 236.412 193.668 243.778 191.11 249.89C188.578 256.003 184.946 260.67 180.215 263.893C175.484 267.115 169.819 268.726 163.22 268.726ZM163.22 254.954C167.721 254.954 171.315 252.691 174 248.164C176.686 243.637 178.016 236.847 177.99 227.793C177.99 221.834 177.376 216.872 176.149 212.908C174.947 208.944 173.233 205.964 171.008 203.97C168.808 201.975 166.213 200.977 163.22 200.977C158.745 200.977 155.164 203.215 152.479 207.691C149.793 212.166 148.438 218.867 148.412 227.793C148.412 233.829 149.013 238.867 150.215 242.908C151.443 246.923 153.169 249.941 155.394 251.962C157.619 253.957 160.228 254.954 163.22 254.954Z" fill="url(#paint2_linear_561_575)"/>
</g>
<path d="M62.0429 171.273V153.5L95.9897 125.418C98.2409 123.552 100.166 121.804 101.766 120.175C103.395 118.516 104.639 116.813 105.498 115.065C106.387 113.317 106.831 111.377 106.831 109.244C106.831 106.904 106.328 104.905 105.321 103.246C104.343 101.587 102.98 100.313 101.233 99.4246C99.4851 98.5063 97.4708 98.0472 95.1899 98.0472C92.909 98.0472 90.8947 98.5063 89.147 99.4246C87.4289 100.343 86.0959 101.691 85.148 103.468C84.2001 105.245 83.7262 107.408 83.7262 109.955H60.2656C60.2656 103.557 61.7022 98.0472 64.5756 93.4261C67.4489 88.8051 71.5071 85.2505 76.7502 82.7622C81.9933 80.274 88.1399 79.0298 95.1899 79.0298C102.477 79.0298 108.786 80.1999 114.118 82.5401C119.48 84.8506 123.612 88.109 126.515 92.3153C129.448 96.5216 130.914 101.454 130.914 107.111C130.914 110.607 130.188 114.087 128.737 117.553C127.285 120.989 124.679 124.796 120.917 128.973C117.155 133.149 111.808 138.126 104.876 143.902L96.3451 151.011V151.544H131.892V171.273H62.0429ZM187.544 80.274V171.273H162.839V103.024H162.306L142.4 114.932V93.9593L164.794 80.274H187.544Z" fill="url(#paint3_linear_561_575)"/>
<defs>
<filter id="filter0_d_561_575" x="17" y="20" width="224" height="224" filterUnits="userSpaceOnUse" color-interpolation-filters="sRGB">
<feFlood flood-opacity="0" result="BackgroundImageFix"/>
<feColorMatrix in="SourceAlpha" type="matrix" values="0 0 0 0 0 0 0 0 0 0 0 0 0 0 0 0 0 0 127 0" result="hardAlpha"/>
<feOffset dy="2"/>
<feGaussianBlur stdDeviation="1"/>
<feComposite in2="hardAlpha" operator="out"/>
<feColorMatrix type="matrix" values="0 0 0 0 0 0 0 0 0 0 0 0 0 0 0 0 0 0 0.12 0"/>
<feBlend mode="normal" in2="BackgroundImageFix" result="effect1_dropShadow_561_575"/>
<feBlend mode="normal" in="SourceGraphic" in2="effect1_dropShadow_561_575" result="shape"/>
</filter>
<linearGradient id="paint0_linear_561_575" x1="130" y1="0" x2="130" y2="260" gradientUnits="userSpaceOnUse">
<stop stop-color="#FF8383"/>
<stop offset="1" stop-color="#6C965E"/>
</linearGradient>
<linearGradient id="paint1_linear_561_575" x1="130.5" y1="-45" x2="130.5" y2="86" gradientUnits="userSpaceOnUse">
<stop stop-color="#FF8383"/>
<stop offset="1" stop-color="#6C965E"/>
</linearGradient>
<linearGradient id="paint2_linear_561_575" x1="129.5" y1="162" x2="129.5" y2="293" gradientUnits="userSpaceOnUse">
<stop stop-color="#FF8383"/>
<stop offset="1" stop-color="#6C965E"/>
</linearGradient>
<linearGradient id="paint3_linear_561_575" x1="128.5" y1="50.2727" x2="128.5" y2="201.273" gradientUnits="userSpaceOnUse">
<stop stop-color="#FF8383"/>
<stop offset="1" stop-color="#6C965E"/>
</linearGradient>
</defs>
</svg>
