<svg width="260" height="260" viewBox="0 0 260 260" fill="none" xmlns="http://www.w3.org/2000/svg">
<rect x="1.5" y="1.5" width="257" height="257" rx="8.5" stroke="url(#paint0_linear_561_573)" stroke-width="3"/>
<g filter="url(#filter0_d_561_573)">
<rect x="19" y="20" width="220" height="220" rx="10" fill="white"/>
</g>
<mask id="mask0_561_573" style="mask-type:alpha" maskUnits="userSpaceOnUse" x="19" y="20" width="220" height="220">
<rect x="19" y="20" width="220" height="220" rx="10" fill="white"/>
</mask>
<g mask="url(#mask0_561_573)">
<path opacity="0.5" d="M66.3683 60V48.0307L94.3349 22.1357C96.7134 19.8339 98.7083 17.7623 100.32 15.9209C101.956 14.0794 103.197 12.2764 104.041 10.5117C104.885 8.72141 105.307 6.79047 105.307 4.71887C105.307 2.41708 104.782 0.434994 103.734 -1.2274C102.685 -2.91538 101.253 -4.20693 99.4372 -5.10207C97.6213 -6.02278 95.5625 -6.48314 93.2608 -6.48314C90.8567 -6.48314 88.7595 -5.99721 86.9692 -5.02534C85.1789 -4.05348 83.7979 -2.65962 82.826 -0.843774C81.8541 0.972076 81.3682 3.13319 81.3682 5.63958H65.601C65.601 0.498932 66.7647 -3.96397 69.092 -7.74912C71.4194 -11.5343 74.6803 -14.4627 78.8746 -16.5343C83.069 -18.6059 87.9027 -19.6417 93.3758 -19.6417C99.0024 -19.6417 103.9 -18.6442 108.069 -16.6493C112.263 -14.68 115.524 -11.9435 117.851 -8.43966C120.179 -4.93583 121.342 -0.920501 121.342 3.60634C121.342 6.57308 120.754 9.50146 119.578 12.3915C118.427 15.2815 116.368 18.4912 113.401 22.0206C110.435 25.5244 106.253 29.7316 100.857 34.642L89.3861 45.8824V46.4195H122.378V60H66.3683ZM163.456 61.0742C157.727 61.0742 152.624 60.0895 148.149 58.1202C143.699 56.1253 140.182 53.3888 137.599 49.9105C135.041 46.4067 133.724 42.3658 133.647 37.7878H150.374C150.476 39.706 151.103 41.3939 152.254 42.8517C153.43 44.2839 154.99 45.3965 156.934 46.1893C158.878 46.9821 161.064 47.3786 163.494 47.3786C166.026 47.3786 168.264 46.931 170.207 46.0359C172.151 45.1407 173.673 43.9003 174.773 42.3146C175.872 40.729 176.422 38.9003 176.422 36.8287C176.422 34.7315 175.834 32.8773 174.658 31.2661C173.507 29.6293 171.844 28.3505 169.67 27.4298C167.522 26.5091 164.964 26.0487 161.998 26.0487H154.67V13.8493H161.998C164.504 13.8493 166.716 13.4145 168.635 12.5449C170.578 11.6754 172.087 10.4733 173.161 8.9388C174.236 7.3787 174.773 5.56285 174.773 3.49125C174.773 1.52195 174.299 -0.204388 173.353 -1.68776C172.432 -3.19671 171.128 -4.37317 169.44 -5.21716C167.778 -6.06115 165.834 -6.48314 163.609 -6.48314C161.358 -6.48314 159.3 -6.07393 157.433 -5.25552C155.566 -4.46269 154.069 -3.32458 152.944 -1.84121C151.819 -0.357843 151.218 1.38128 151.141 3.37616H135.22C135.297 -1.15068 136.589 -5.14043 139.095 -8.59311C141.601 -12.0458 144.977 -14.744 149.223 -16.6877C153.494 -18.657 158.315 -19.6417 163.686 -19.6417C169.108 -19.6417 173.852 -18.657 177.918 -16.6877C181.985 -14.7184 185.143 -12.0586 187.394 -8.7082C189.67 -5.3834 190.796 -1.6494 190.77 2.49381C190.796 6.89277 189.427 10.5628 186.665 13.504C183.929 16.4452 180.361 18.3122 175.962 19.105V19.7188C181.742 20.4605 186.141 22.4682 189.159 25.7418C192.202 28.9899 193.711 33.0564 193.686 37.9413C193.711 42.4169 192.42 46.3939 189.811 49.8722C187.228 53.3504 183.66 56.087 179.108 58.0818C174.555 60.0767 169.338 61.0742 163.456 61.0742Z" fill="url(#paint1_linear_561_573)"/>
<path opacity="0.5" d="M76.3683 267V255.031L104.335 229.136C106.713 226.834 108.708 224.762 110.32 222.921C111.956 221.079 113.197 219.276 114.041 217.512C114.885 215.721 115.307 213.79 115.307 211.719C115.307 209.417 114.782 207.435 113.734 205.773C112.685 204.085 111.253 202.793 109.437 201.898C107.621 200.977 105.563 200.517 103.261 200.517C100.857 200.517 98.7595 201.003 96.9692 201.975C95.1789 202.947 93.7979 204.34 92.826 206.156C91.8541 207.972 91.3682 210.133 91.3682 212.64H75.601C75.601 207.499 76.7647 203.036 79.092 199.251C81.4194 195.466 84.6803 192.537 88.8746 190.466C93.069 188.394 97.9027 187.358 103.376 187.358C109.002 187.358 113.9 188.356 118.069 190.351C122.263 192.32 125.524 195.057 127.851 198.56C130.179 202.064 131.342 206.079 131.342 210.606C131.342 213.573 130.754 216.501 129.578 219.391C128.427 222.281 126.368 225.491 123.401 229.021C120.435 232.524 116.253 236.732 110.857 241.642L99.3861 252.882V253.419H132.378V267H76.3683ZM178.596 188.433V267H161.985V204.2H161.525L143.532 215.478V200.747L162.982 188.433H178.596Z" fill="url(#paint2_linear_561_573)"/>
</g>
<path d="M54.0429 171.273V153.5L87.9897 125.418C90.2409 123.552 92.1664 121.804 93.766 120.175C95.3952 118.516 96.6393 116.813 97.4983 115.065C98.387 113.317 98.8313 111.377 98.8313 109.244C98.8313 106.904 98.3277 104.905 97.3206 103.246C96.3431 101.587 94.9805 100.313 93.2328 99.4246C91.4851 98.5063 89.4708 98.0472 87.1899 98.0472C84.909 98.0472 82.8947 98.5063 81.147 99.4246C79.4289 100.343 78.0959 101.691 77.148 103.468C76.2001 105.245 75.7262 107.408 75.7262 109.955H52.2656C52.2656 103.557 53.7022 98.0472 56.5756 93.4261C59.4489 88.8051 63.5071 85.2505 68.7502 82.7622C73.9933 80.274 80.1399 79.0298 87.1899 79.0298C94.4769 79.0298 100.786 80.1999 106.118 82.5401C111.48 84.8506 115.612 88.109 118.515 92.3153C121.448 96.5216 122.914 101.454 122.914 107.111C122.914 110.607 122.188 114.087 120.737 117.553C119.285 120.989 116.679 124.796 112.917 128.973C109.155 133.149 103.808 138.126 96.8763 143.902L88.3451 151.011V151.544H123.892V171.273H54.0429ZM134.933 171.273V153.5L168.88 125.418C171.131 123.552 173.057 121.804 174.656 120.175C176.285 118.516 177.53 116.813 178.389 115.065C179.277 113.317 179.722 111.377 179.722 109.244C179.722 106.904 179.218 104.905 178.211 103.246C177.233 101.587 175.871 100.313 174.123 99.4246C172.375 98.5063 170.361 98.0472 168.08 98.0472C165.799 98.0472 163.785 98.5063 162.037 99.4246C160.319 100.343 158.986 101.691 158.038 103.468C157.09 105.245 156.616 107.408 156.616 109.955H133.156C133.156 103.557 134.592 98.0472 137.466 93.4261C140.339 88.8051 144.397 85.2505 149.64 82.7622C154.884 80.274 161.03 79.0298 168.08 79.0298C175.367 79.0298 181.677 80.1999 187.009 82.5401C192.37 84.8506 196.502 88.109 199.405 92.3153C202.338 96.5216 203.804 101.454 203.804 107.111C203.804 110.607 203.078 114.087 201.627 117.553C200.176 120.989 197.569 124.796 193.807 128.973C190.045 133.149 184.698 138.126 177.766 143.902L169.235 151.011V151.544H204.782V171.273H134.933Z" fill="url(#paint3_linear_561_573)"/>
<defs>
<filter id="filter0_d_561_573" x="17" y="20" width="224" height="224" filterUnits="userSpaceOnUse" color-interpolation-filters="sRGB">
<feFlood flood-opacity="0" result="BackgroundImageFix"/>
<feColorMatrix in="SourceAlpha" type="matrix" values="0 0 0 0 0 0 0 0 0 0 0 0 0 0 0 0 0 0 127 0" result="hardAlpha"/>
<feOffset dy="2"/>
<feGaussianBlur stdDeviation="1"/>
<feComposite in2="hardAlpha" operator="out"/>
<feColorMatrix type="matrix" values="0 0 0 0 0 0 0 0 0 0 0 0 0 0 0 0 0 0 0.12 0"/>
<feBlend mode="normal" in2="BackgroundImageFix" result="effect1_dropShadow_561_573"/>
<feBlend mode="normal" in="SourceGraphic" in2="effect1_dropShadow_561_573" result="shape"/>
</filter>
<linearGradient id="paint0_linear_561_573" x1="130" y1="0" x2="130" y2="260" gradientUnits="userSpaceOnUse">
<stop stop-color="#FF8383"/>
<stop offset="1" stop-color="#6C965E"/>
</linearGradient>
<linearGradient id="paint1_linear_561_573" x1="130" y1="-45" x2="130" y2="86" gradientUnits="userSpaceOnUse">
<stop stop-color="#FF8383"/>
<stop offset="1" stop-color="#6C965E"/>
</linearGradient>
<linearGradient id="paint2_linear_561_573" x1="130.5" y1="162" x2="130.5" y2="293" gradientUnits="userSpaceOnUse">
<stop stop-color="#FF8383"/>
<stop offset="1" stop-color="#6C965E"/>
</linearGradient>
<linearGradient id="paint3_linear_561_573" x1="129" y1="50.2727" x2="129" y2="201.273" gradientUnits="userSpaceOnUse">
<stop stop-color="#FF8383"/>
<stop offset="1" stop-color="#6C965E"/>
</linearGradient>
</defs>
</svg>
