<svg width="83" height="102" viewBox="0 0 83 102" fill="none" xmlns="http://www.w3.org/2000/svg">
<path d="M44.8125 31.875C44.8125 31.0296 44.48 30.2189 43.8881 29.6211C43.2961 29.0233 42.4933 28.6875 41.6562 28.6875C40.8192 28.6875 40.0164 29.0233 39.4244 29.6211C38.8325 30.2189 38.5 31.0296 38.5 31.875V51H25.875C25.0379 51 24.2351 51.3358 23.6432 51.9336C23.0513 52.5314 22.7188 53.3421 22.7188 54.1875C22.7188 55.0329 23.0513 55.8436 23.6432 56.4414C24.2351 57.0392 25.0379 57.375 25.875 57.375H41.6562C42.4933 57.375 43.2961 57.0392 43.8881 56.4414C44.48 55.8436 44.8125 55.0329 44.8125 54.1875V31.875Z" fill="url(#paint0_linear_0_15)"/>
<path d="M13.25 10.6271V13.0687C9.68544 13.8036 6.48175 15.7596 4.18113 18.6057C1.8805 21.4519 0.624258 25.0134 0.625 28.6875V73.3125C0.624258 76.9866 1.8805 80.5481 4.18113 83.3943C6.48175 86.2404 9.68544 88.1964 13.25 88.9312V91.3729C13.25 97.2379 17.9591 102 23.7729 102H53.2271C59.0346 102 63.75 97.2443 63.75 91.3729V88.9312C67.3146 88.1964 70.5182 86.2404 72.8189 83.3943C75.1195 80.5481 76.3757 76.9866 76.375 73.3125V51H79.5312C80.3683 51 81.1711 50.6642 81.7631 50.0664C82.355 49.4686 82.6875 48.6579 82.6875 47.8125V35.0625C82.6875 34.2171 82.355 33.4064 81.7631 32.8086C81.1711 32.2108 80.3683 31.875 79.5312 31.875H76.375V28.6875C76.3757 25.0134 75.1195 21.4519 72.8189 18.6057C70.5182 15.7596 67.3146 13.8036 63.75 13.0687V10.6271C63.75 4.76213 59.0409 0 53.2271 0H23.7729C17.9654 0 13.25 4.75575 13.25 10.6271ZM16.4062 19.125H60.5938C63.105 19.125 65.5134 20.1325 67.2892 21.9258C69.0649 23.7191 70.0625 26.1514 70.0625 28.6875V73.3125C70.0625 75.8486 69.0649 78.2809 67.2892 80.0742C65.5134 81.8675 63.105 82.875 60.5938 82.875H16.4062C13.895 82.875 11.4866 81.8675 9.71083 80.0742C7.9351 78.2809 6.9375 75.8486 6.9375 73.3125V28.6875C6.9375 26.1514 7.9351 23.7191 9.71083 21.9258C11.4866 20.1325 13.895 19.125 16.4062 19.125Z" fill="url(#paint1_linear_0_15)"/>
<defs>
<linearGradient id="paint0_linear_0_15" x1="33.7656" y1="28.6875" x2="33.7656" y2="57.375" gradientUnits="userSpaceOnUse">
<stop stop-color="#6C965E"/>
<stop offset="1" stop-color="#B5CB86"/>
</linearGradient>
<linearGradient id="paint1_linear_0_15" x1="41.6562" y1="0" x2="41.6563" y2="102" gradientUnits="userSpaceOnUse">
<stop stop-color="#6C965E"/>
<stop offset="1" stop-color="#B5CB86"/>
</linearGradient>
</defs>
</svg>
