<svg width="89" height="101" viewBox="0 0 89 101" fill="none" xmlns="http://www.w3.org/2000/svg">
<path d="M19.25 69.4375C19.25 67.7633 19.9151 66.1577 21.0989 64.9739C22.2827 63.7901 23.8883 63.125 25.5625 63.125C27.2367 63.125 28.8423 63.7901 30.0261 64.9739C31.2099 66.1577 31.875 67.7633 31.875 69.4375V75.75C31.875 77.4242 31.2099 79.0298 30.0261 80.2136C28.8423 81.3974 27.2367 82.0625 25.5625 82.0625C23.8883 82.0625 22.2827 81.3974 21.0989 80.2136C19.9151 79.0298 19.25 77.4242 19.25 75.75V69.4375ZM57.125 44.1875C57.125 42.5133 57.7901 40.9077 58.9739 39.7239C60.1577 38.5401 61.7633 37.875 63.4375 37.875C65.1117 37.875 66.7173 38.5401 67.9011 39.7239C69.0849 40.9077 69.75 42.5133 69.75 44.1875V75.75C69.75 77.4242 69.0849 79.0298 67.9011 80.2136C66.7173 81.3974 65.1117 82.0625 63.4375 82.0625C61.7633 82.0625 60.1577 81.3974 58.9739 80.2136C57.7901 79.0298 57.125 77.4242 57.125 75.75V44.1875ZM38.1875 56.8125C38.1875 55.1383 38.8526 53.5327 40.0364 52.3489C41.2202 51.1651 42.8258 50.5 44.5 50.5C46.1742 50.5 47.7798 51.1651 48.9636 52.3489C50.1474 53.5327 50.8125 55.1383 50.8125 56.8125V75.75C50.8125 77.4242 50.1474 79.0298 48.9636 80.2136C47.7798 81.3974 46.1742 82.0625 44.5 82.0625C42.8258 82.0625 41.2202 81.3974 40.0364 80.2136C38.8526 79.0298 38.1875 77.4242 38.1875 75.75V56.8125Z" fill="url(#paint0_linear_0_18)"/>
<path d="M19.25 9.46875H12.9375C9.58914 9.46875 6.37792 10.7989 4.01028 13.1665C1.64263 15.5342 0.3125 18.7454 0.3125 22.0938V88.375C0.3125 91.7234 1.64263 94.9346 4.01028 97.3022C6.37792 99.6699 9.58914 101 12.9375 101H76.0625C79.4109 101 82.6221 99.6699 84.9897 97.3022C87.3574 94.9346 88.6875 91.7234 88.6875 88.375V22.0938C88.6875 18.7454 87.3574 15.5342 84.9897 13.1665C82.6221 10.7989 79.4109 9.46875 76.0625 9.46875H69.75V15.7812H76.0625C77.7367 15.7813 79.3423 16.4463 80.5261 17.6301C81.7099 18.814 82.375 20.4196 82.375 22.0938V88.375C82.375 90.0492 81.7099 91.6548 80.5261 92.8386C79.3423 94.0224 77.7367 94.6875 76.0625 94.6875H12.9375C11.2633 94.6875 9.65771 94.0224 8.47389 92.8386C7.29006 91.6548 6.625 90.0492 6.625 88.375V22.0938C6.625 20.4196 7.29006 18.814 8.47389 17.6301C9.65771 16.4463 11.2633 15.7813 12.9375 15.7812H19.25V9.46875Z" fill="url(#paint1_linear_0_18)"/>
<path d="M53.9688 6.3125C54.8058 6.3125 55.6086 6.64503 56.2006 7.23694C56.7925 7.82886 57.125 8.63166 57.125 9.46875V15.7812C57.125 16.6183 56.7925 17.4211 56.2006 18.0131C55.6086 18.605 54.8058 18.9375 53.9688 18.9375H35.0312C34.1942 18.9375 33.3914 18.605 32.7994 18.0131C32.2075 17.4211 31.875 16.6183 31.875 15.7812V9.46875C31.875 8.63166 32.2075 7.82886 32.7994 7.23694C33.3914 6.64503 34.1942 6.3125 35.0312 6.3125H53.9688ZM35.0312 0C32.52 0 30.1116 0.997598 28.3358 2.77333C26.5601 4.54907 25.5625 6.95748 25.5625 9.46875V15.7812C25.5625 18.2925 26.5601 20.7009 28.3358 22.4767C30.1116 24.2524 32.52 25.25 35.0312 25.25H53.9688C56.48 25.25 58.8884 24.2524 60.6642 22.4767C62.4399 20.7009 63.4375 18.2925 63.4375 15.7812V9.46875C63.4375 6.95748 62.4399 4.54907 60.6642 2.77333C58.8884 0.997598 56.48 0 53.9688 0L35.0312 0Z" fill="url(#paint2_linear_0_18)"/>
<defs>
<linearGradient id="paint0_linear_0_18" x1="44.5" y1="37.875" x2="44.5" y2="82.0625" gradientUnits="userSpaceOnUse">
<stop stop-color="#6C965E"/>
<stop offset="1" stop-color="#B5CB86"/>
</linearGradient>
<linearGradient id="paint1_linear_0_18" x1="44.5" y1="9.46875" x2="44.5" y2="101" gradientUnits="userSpaceOnUse">
<stop stop-color="#6C965E"/>
<stop offset="1" stop-color="#B5CB86"/>
</linearGradient>
<linearGradient id="paint2_linear_0_18" x1="44.5" y1="0" x2="44.5" y2="25.25" gradientUnits="userSpaceOnUse">
<stop stop-color="#6C965E"/>
<stop offset="1" stop-color="#B5CB86"/>
</linearGradient>
</defs>
</svg>
