<svg width="101" height="101" viewBox="0 0 101 101" fill="none" xmlns="http://www.w3.org/2000/svg">
<path d="M25.25 69.4375C25.25 67.7633 25.9151 66.1577 27.0989 64.9739C28.2827 63.7901 29.8883 63.125 31.5625 63.125C33.2367 63.125 34.8423 63.7901 36.0261 64.9739C37.2099 66.1577 37.875 67.7633 37.875 69.4375V75.75C37.875 77.4242 37.2099 79.0298 36.0261 80.2136C34.8423 81.3974 33.2367 82.0625 31.5625 82.0625C29.8883 82.0625 28.2827 81.3974 27.0989 80.2136C25.9151 79.0298 25.25 77.4242 25.25 75.75V69.4375ZM63.125 44.1875C63.125 42.5133 63.7901 40.9077 64.9739 39.7239C66.1577 38.5401 67.7633 37.875 69.4375 37.875C71.1117 37.875 72.7173 38.5401 73.9011 39.7239C75.0849 40.9077 75.75 42.5133 75.75 44.1875V75.75C75.75 77.4242 75.0849 79.0298 73.9011 80.2136C72.7173 81.3974 71.1117 82.0625 69.4375 82.0625C67.7633 82.0625 66.1577 81.3974 64.9739 80.2136C63.7901 79.0298 63.125 77.4242 63.125 75.75V44.1875ZM44.1875 56.8125C44.1875 55.1383 44.8526 53.5327 46.0364 52.3489C47.2202 51.1651 48.8258 50.5 50.5 50.5C52.1742 50.5 53.7798 51.1651 54.9636 52.3489C56.1474 53.5327 56.8125 55.1383 56.8125 56.8125V75.75C56.8125 77.4242 56.1474 79.0298 54.9636 80.2136C53.7798 81.3974 52.1742 82.0625 50.5 82.0625C48.8258 82.0625 47.2202 81.3974 46.0364 80.2136C44.8526 79.0298 44.1875 77.4242 44.1875 75.75V56.8125Z" fill="url(#paint0_linear_178_519)"/>
<path d="M25.25 9.46875H18.9375C15.5891 9.46875 12.3779 10.7989 10.0103 13.1665C7.64263 15.5342 6.3125 18.7454 6.3125 22.0938V88.375C6.3125 91.7234 7.64263 94.9346 10.0103 97.3022C12.3779 99.6699 15.5891 101 18.9375 101H82.0625C85.4109 101 88.6221 99.6699 90.9897 97.3022C93.3574 94.9346 94.6875 91.7234 94.6875 88.375V22.0938C94.6875 18.7454 93.3574 15.5342 90.9897 13.1665C88.6221 10.7989 85.4109 9.46875 82.0625 9.46875H75.75V15.7812H82.0625C83.7367 15.7812 85.3423 16.4463 86.5261 17.6301C87.7099 18.814 88.375 20.4196 88.375 22.0938V88.375C88.375 90.0492 87.7099 91.6548 86.5261 92.8386C85.3423 94.0224 83.7367 94.6875 82.0625 94.6875H18.9375C17.2633 94.6875 15.6577 94.0224 14.4739 92.8386C13.2901 91.6548 12.625 90.0492 12.625 88.375V22.0938C12.625 20.4196 13.2901 18.814 14.4739 17.6301C15.6577 16.4463 17.2633 15.7812 18.9375 15.7812H25.25V9.46875Z" fill="url(#paint1_linear_178_519)"/>
<path d="M59.9688 6.3125C60.8058 6.3125 61.6086 6.64503 62.2006 7.23694C62.7925 7.82886 63.125 8.63166 63.125 9.46875V15.7812C63.125 16.6183 62.7925 17.4211 62.2006 18.0131C61.6086 18.605 60.8058 18.9375 59.9688 18.9375H41.0312C40.1942 18.9375 39.3914 18.605 38.7994 18.0131C38.2075 17.4211 37.875 16.6183 37.875 15.7812V9.46875C37.875 8.63166 38.2075 7.82886 38.7994 7.23694C39.3914 6.64503 40.1942 6.3125 41.0312 6.3125H59.9688ZM41.0312 0C38.52 0 36.1116 0.997598 34.3358 2.77333C32.5601 4.54907 31.5625 6.95748 31.5625 9.46875V15.7812C31.5625 18.2925 32.5601 20.7009 34.3358 22.4767C36.1116 24.2524 38.52 25.25 41.0312 25.25H59.9688C62.48 25.25 64.8884 24.2524 66.6642 22.4767C68.4399 20.7009 69.4375 18.2925 69.4375 15.7812V9.46875C69.4375 6.95748 68.4399 4.54907 66.6642 2.77333C64.8884 0.997598 62.48 0 59.9688 0L41.0312 0Z" fill="url(#paint2_linear_178_519)"/>
<defs>
<linearGradient id="paint0_linear_178_519" x1="50.5" y1="37.875" x2="50.5" y2="82.0625" gradientUnits="userSpaceOnUse">
<stop stop-color="#6C965E"/>
<stop offset="1" stop-color="#FF8383"/>
</linearGradient>
<linearGradient id="paint1_linear_178_519" x1="50.5" y1="9.46875" x2="50.5" y2="101" gradientUnits="userSpaceOnUse">
<stop stop-color="#6C965E"/>
<stop offset="1" stop-color="#FF8383"/>
</linearGradient>
<linearGradient id="paint2_linear_178_519" x1="50.5" y1="0" x2="50.5" y2="25.25" gradientUnits="userSpaceOnUse">
<stop stop-color="#6C965E"/>
<stop offset="1" stop-color="#FF8383"/>
</linearGradient>
</defs>
</svg>
