<svg width="74" height="102" viewBox="0 0 74 102" fill="none" xmlns="http://www.w3.org/2000/svg">
<path d="M47.6396 5.508L36.9998 0L26.3599 5.508L14.5151 7.30575L9.1474 18.0157L0.624023 26.4307L2.57477 38.25L0.624023 50.0693L9.1474 58.4842L14.5151 69.1943L26.3599 70.992L36.9998 76.5L47.6396 70.992L59.4844 69.1943L64.8522 58.4842L73.3755 50.0693L71.4248 38.25L73.3755 26.4307L64.8522 18.0157L59.4844 7.30575L47.6396 5.508ZM55.2641 13.1134L59.6246 21.8152L66.5479 28.6492L64.9669 38.25L66.5479 47.8508L59.6246 54.6848L55.2641 63.3866L45.6379 64.8465L36.9998 69.3217L28.3616 64.8465L18.7354 63.3866L14.3749 54.6848L7.45165 47.8508L9.03902 38.25L7.44527 28.6492L14.3749 21.8152L18.7354 13.1134L28.3616 11.6535L36.9998 7.17825L45.6443 11.6535L55.2641 13.1134Z" fill="url(#paint0_linear_0_3)"/>
<path d="M11.4998 75.1868V102L36.9998 95.625L62.4998 102V75.1868L49.635 77.1375L36.9998 83.6783L24.3645 77.1375L11.4998 75.1868Z" fill="url(#paint1_linear_0_3)"/>
<defs>
<linearGradient id="paint0_linear_0_3" x1="36.9998" y1="0" x2="36.9998" y2="76.5" gradientUnits="userSpaceOnUse">
<stop stop-color="#6C965E"/>
<stop offset="1" stop-color="#B5CB86"/>
</linearGradient>
<linearGradient id="paint1_linear_0_3" x1="36.9998" y1="75.1868" x2="36.9998" y2="102" gradientUnits="userSpaceOnUse">
<stop stop-color="#6C965E"/>
<stop offset="1" stop-color="#B5CB86"/>
</linearGradient>
</defs>
</svg>
