<svg width="101" height="102" viewBox="0 0 101 102" fill="none" xmlns="http://www.w3.org/2000/svg">
<path d="M68.5159 45.5557C68.8098 45.8518 69.043 46.2036 69.2021 46.5908C69.3612 46.9781 69.4431 47.3932 69.4431 47.8125C69.4431 48.2318 69.3612 48.6469 69.2021 49.0342C69.043 49.4214 68.8098 49.7731 68.5159 50.0692L49.5784 69.1942C49.2852 69.4911 48.9369 69.7266 48.5534 69.8873C48.17 70.048 47.7589 70.1307 47.3437 70.1307C46.9286 70.1307 46.5175 70.048 46.1341 69.8873C45.7506 69.7266 45.4023 69.4911 45.1091 69.1942L35.6404 59.6317C35.3469 59.3354 35.1141 58.9835 34.9553 58.5963C34.7965 58.2091 34.7148 57.7941 34.7148 57.375C34.7148 56.9559 34.7965 56.5409 34.9553 56.1536C35.1141 55.7664 35.3469 55.4146 35.6404 55.1182C36.233 54.5197 37.0369 54.1835 37.875 54.1835C38.29 54.1835 38.701 54.266 39.0844 54.4264C39.4678 54.5868 39.8162 54.8219 40.1096 55.1182L47.3437 62.4304L64.0466 45.5557C64.3398 45.2589 64.6881 45.0234 65.0716 44.8627C65.455 44.702 65.8661 44.6193 66.2812 44.6193C66.6964 44.6193 67.1075 44.702 67.4909 44.8627C67.8744 45.0234 68.2227 45.2589 68.5159 45.5557Z" fill="url(#paint0_linear_0_6)"/>
<path d="M22.0938 0C22.9308 0 23.7336 0.335825 24.3256 0.933597C24.9175 1.53137 25.25 2.34212 25.25 3.1875V6.375H75.75V3.1875C75.75 2.34212 76.0825 1.53137 76.6744 0.933597C77.2664 0.335825 78.0692 0 78.9062 0C79.7433 0 80.5461 0.335825 81.1381 0.933597C81.73 1.53137 82.0625 2.34212 82.0625 3.1875V6.375H88.375C91.7234 6.375 94.9346 7.7183 97.3022 10.1094C99.6699 12.5005 101 15.7435 101 19.125V89.25C101 92.6315 99.6699 95.8745 97.3022 98.2656C94.9346 100.657 91.7234 102 88.375 102H12.625C9.27664 102 6.06542 100.657 3.69778 98.2656C1.33013 95.8745 0 92.6315 0 89.25V19.125C0 15.7435 1.33013 12.5005 3.69778 10.1094C6.06542 7.7183 9.27664 6.375 12.625 6.375H18.9375V3.1875C18.9375 2.34212 19.27 1.53137 19.8619 0.933597C20.4539 0.335825 21.2567 0 22.0938 0ZM6.3125 25.5V89.25C6.3125 90.9408 6.97756 92.5623 8.16139 93.7578C9.34521 94.9533 10.9508 95.625 12.625 95.625H88.375C90.0492 95.625 91.6548 94.9533 92.8386 93.7578C94.0224 92.5623 94.6875 90.9408 94.6875 89.25V25.5H6.3125Z" fill="url(#paint1_linear_0_6)"/>
<defs>
<linearGradient id="paint0_linear_0_6" x1="52.0789" y1="44.6193" x2="52.0789" y2="70.1307" gradientUnits="userSpaceOnUse">
<stop stop-color="#6C965E"/>
<stop offset="1" stop-color="#B5CB86"/>
</linearGradient>
<linearGradient id="paint1_linear_0_6" x1="50.5" y1="0" x2="50.5" y2="102" gradientUnits="userSpaceOnUse">
<stop stop-color="#6C965E"/>
<stop offset="1" stop-color="#B5CB86"/>
</linearGradient>
</defs>
</svg>
